<svg id="visual" viewBox="0 0 900 600" width="900" height="600" xmlns="http://www.w3.org/2000/svg" xmlns:xlink="http://www.w3.org/1999/xlink" version="1.1"><g stroke-width="1" stroke-linejoin="bevel"><path d="M433 309L474 405L487 320Z" fill="#205a7a" stroke="#205a7a"></path><path d="M433 309L386 397L474 405Z" fill="#00101c" stroke="#00101c"></path><path d="M401 511L512 477L474 405Z" fill="#19435d" stroke="#19435d"></path><path d="M474 405L628 392L487 320Z" fill="#0c2435" stroke="#0c2435"></path><path d="M487 320L423 219L433 309Z" fill="#205a7a" stroke="#205a7a"></path><path d="M433 309L299 333L386 397Z" fill="#277297" stroke="#277297"></path><path d="M423 219L299 333L433 309Z" fill="#0c2435" stroke="#0c2435"></path><path d="M289 402L401 511L386 397Z" fill="#0c2435" stroke="#0c2435"></path><path d="M386 397L401 511L474 405Z" fill="#277297" stroke="#277297"></path><path d="M299 333L289 402L386 397Z" fill="#246688" stroke="#246688"></path><path d="M628 198L482 185L487 320Z" fill="#205a7a" stroke="#205a7a"></path><path d="M487 320L482 185L423 219Z" fill="#246688" stroke="#246688"></path><path d="M512 477L628 392L474 405Z" fill="#19435d" stroke="#19435d"></path><path d="M628 392L632 331L487 320Z" fill="#246688" stroke="#246688"></path><path d="M479 600L571 527L512 477Z" fill="#277297" stroke="#277297"></path><path d="M512 477L571 527L628 392Z" fill="#112e42" stroke="#112e42"></path><path d="M299 333L235 363L289 402Z" fill="#0c2435" stroke="#0c2435"></path><path d="M289 402L276 508L401 511Z" fill="#0c2435" stroke="#0c2435"></path><path d="M217 213L235 363L299 333Z" fill="#15384f" stroke="#15384f"></path><path d="M711 413L676 316L628 392Z" fill="#112e42" stroke="#112e42"></path><path d="M628 392L676 316L632 331Z" fill="#205a7a" stroke="#205a7a"></path><path d="M632 331L628 198L487 320Z" fill="#297ea6" stroke="#297ea6"></path><path d="M227 508L276 508L289 402Z" fill="#246688" stroke="#246688"></path><path d="M401 511L479 600L512 477Z" fill="#081a28" stroke="#081a28"></path><path d="M676 316L628 198L632 331Z" fill="#205a7a" stroke="#205a7a"></path><path d="M332 122L304 170L423 219Z" fill="#112e42" stroke="#112e42"></path><path d="M423 219L304 170L299 333Z" fill="#246688" stroke="#246688"></path><path d="M387 600L479 600L401 511Z" fill="#112e42" stroke="#112e42"></path><path d="M314 600L387 600L401 511Z" fill="#246688" stroke="#246688"></path><path d="M601 600L664 504L571 527Z" fill="#277297" stroke="#277297"></path><path d="M571 527L664 504L628 392Z" fill="#205a7a" stroke="#205a7a"></path><path d="M384 94L332 122L423 219Z" fill="#277297" stroke="#277297"></path><path d="M384 94L423 219L482 185Z" fill="#112e42" stroke="#112e42"></path><path d="M664 504L711 413L628 392Z" fill="#19435d" stroke="#19435d"></path><path d="M235 363L227 508L289 402Z" fill="#00101c" stroke="#00101c"></path><path d="M276 508L314 600L401 511Z" fill="#15384f" stroke="#15384f"></path><path d="M526 82L384 94L482 185Z" fill="#15384f" stroke="#15384f"></path><path d="M216 120L217 213L304 170Z" fill="#081a28" stroke="#081a28"></path><path d="M304 170L217 213L299 333Z" fill="#112e42" stroke="#112e42"></path><path d="M235 363L136 403L227 508Z" fill="#15384f" stroke="#15384f"></path><path d="M192 600L314 600L276 508Z" fill="#246688" stroke="#246688"></path><path d="M479 600L601 600L571 527Z" fill="#1d4e6b" stroke="#1d4e6b"></path><path d="M217 213L167 337L235 363Z" fill="#0c2435" stroke="#0c2435"></path><path d="M628 198L526 82L482 185Z" fill="#15384f" stroke="#15384f"></path><path d="M711 413L763 305L676 316Z" fill="#0c2435" stroke="#0c2435"></path><path d="M676 316L732 163L628 198Z" fill="#1d4e6b" stroke="#1d4e6b"></path><path d="M628 198L584 70L526 82Z" fill="#112e42" stroke="#112e42"></path><path d="M720 82L584 70L628 198Z" fill="#081a28" stroke="#081a28"></path><path d="M526 82L469 0L384 94Z" fill="#00101c" stroke="#00101c"></path><path d="M167 337L136 403L235 363Z" fill="#112e42" stroke="#112e42"></path><path d="M76 332L136 403L167 337Z" fill="#277297" stroke="#277297"></path><path d="M711 413L782 391L763 305Z" fill="#246688" stroke="#246688"></path><path d="M803 504L782 391L711 413Z" fill="#297ea6" stroke="#297ea6"></path><path d="M803 504L711 413L664 504Z" fill="#112e42" stroke="#112e42"></path><path d="M231 0L216 120L332 122Z" fill="#205a7a" stroke="#205a7a"></path><path d="M332 122L216 120L304 170Z" fill="#297ea6" stroke="#297ea6"></path><path d="M67 177L76 332L167 337Z" fill="#297ea6" stroke="#297ea6"></path><path d="M601 600L689 600L664 504Z" fill="#297ea6" stroke="#297ea6"></path><path d="M720 82L732 163L821 109Z" fill="#00101c" stroke="#00101c"></path><path d="M763 305L732 163L676 316Z" fill="#00101c" stroke="#00101c"></path><path d="M227 508L192 600L276 508Z" fill="#246688" stroke="#246688"></path><path d="M100 488L192 600L227 508Z" fill="#205a7a" stroke="#205a7a"></path><path d="M602 0L469 0L526 82Z" fill="#15384f" stroke="#15384f"></path><path d="M384 94L333 0L332 122Z" fill="#246688" stroke="#246688"></path><path d="M469 0L419 0L384 94Z" fill="#277297" stroke="#277297"></path><path d="M0 419L100 488L136 403Z" fill="#1d4e6b" stroke="#1d4e6b"></path><path d="M136 403L100 488L227 508Z" fill="#00101c" stroke="#00101c"></path><path d="M67 177L167 337L217 213Z" fill="#19435d" stroke="#19435d"></path><path d="M419 0L333 0L384 94Z" fill="#297ea6" stroke="#297ea6"></path><path d="M689 600L803 504L664 504Z" fill="#19435d" stroke="#19435d"></path><path d="M816 220L732 163L763 305Z" fill="#277297" stroke="#277297"></path><path d="M732 163L720 82L628 198Z" fill="#246688" stroke="#246688"></path><path d="M584 70L602 0L526 82Z" fill="#081a28" stroke="#081a28"></path><path d="M720 82L602 0L584 70Z" fill="#15384f" stroke="#15384f"></path><path d="M900 264L816 220L763 305Z" fill="#112e42" stroke="#112e42"></path><path d="M900 264L763 305L782 391Z" fill="#205a7a" stroke="#205a7a"></path><path d="M333 0L231 0L332 122Z" fill="#19435d" stroke="#19435d"></path><path d="M216 120L67 177L217 213Z" fill="#112e42" stroke="#112e42"></path><path d="M60 121L67 177L216 120Z" fill="#0c2435" stroke="#0c2435"></path><path d="M689 600L806 600L803 504Z" fill="#081a28" stroke="#081a28"></path><path d="M803 504L900 407L782 391Z" fill="#297ea6" stroke="#297ea6"></path><path d="M0 525L78 600L100 488Z" fill="#112e42" stroke="#112e42"></path><path d="M100 488L78 600L192 600Z" fill="#297ea6" stroke="#297ea6"></path><path d="M0 419L136 403L76 332Z" fill="#112e42" stroke="#112e42"></path><path d="M900 167L821 109L816 220Z" fill="#19435d" stroke="#19435d"></path><path d="M816 220L821 109L732 163Z" fill="#205a7a" stroke="#205a7a"></path><path d="M720 82L732 0L602 0Z" fill="#277297" stroke="#277297"></path><path d="M900 496L900 407L803 504Z" fill="#112e42" stroke="#112e42"></path><path d="M0 200L0 317L76 332Z" fill="#00101c" stroke="#00101c"></path><path d="M807 0L732 0L720 82Z" fill="#1d4e6b" stroke="#1d4e6b"></path><path d="M0 317L0 419L76 332Z" fill="#00101c" stroke="#00101c"></path><path d="M67 177L0 200L76 332Z" fill="#205a7a" stroke="#205a7a"></path><path d="M96 0L60 121L216 120Z" fill="#00101c" stroke="#00101c"></path><path d="M900 407L900 264L782 391Z" fill="#277297" stroke="#277297"></path><path d="M900 600L900 496L803 504Z" fill="#297ea6" stroke="#297ea6"></path><path d="M60 121L0 200L67 177Z" fill="#19435d" stroke="#19435d"></path><path d="M0 419L0 525L100 488Z" fill="#112e42" stroke="#112e42"></path><path d="M900 264L900 167L816 220Z" fill="#15384f" stroke="#15384f"></path><path d="M821 109L807 0L720 82Z" fill="#205a7a" stroke="#205a7a"></path><path d="M231 0L96 0L216 120Z" fill="#246688" stroke="#246688"></path><path d="M60 121L0 107L0 200Z" fill="#0c2435" stroke="#0c2435"></path><path d="M900 0L807 0L821 109Z" fill="#081a28" stroke="#081a28"></path><path d="M806 600L900 600L803 504Z" fill="#1d4e6b" stroke="#1d4e6b"></path><path d="M0 525L0 600L78 600Z" fill="#1d4e6b" stroke="#1d4e6b"></path><path d="M0 0L0 107L60 121Z" fill="#246688" stroke="#246688"></path><path d="M900 167L900 102L821 109Z" fill="#081a28" stroke="#081a28"></path><path d="M900 102L900 0L821 109Z" fill="#00101c" stroke="#00101c"></path><path d="M96 0L0 0L60 121Z" fill="#15384f" stroke="#15384f"></path></g></svg>